HIERARCHY
ROOT root
{
	OFFSET	0	13.1	24.9
	CHANNELS 6  Xposition Yposition Zposition Xrotation Yrotation Zrotation
	JOINT spine_1
	{
		OFFSET	0	9.99999	0
		CHANNELS 3  Xrotation Yrotation Zrotation
		JOINT spine_2
		{
			OFFSET	0	112	-10
			CHANNELS 3  Xrotation Yrotation Zrotation
			JOINT spine_3
			{
				OFFSET	0	206.5	19.3
				CHANNELS 3  Xrotation Yrotation Zrotation
				JOINT spine_4
				{
					OFFSET	0	110.4	14.6
					CHANNELS 3  Xrotation Yrotation Zrotation
					JOINT neck_1
					{
						OFFSET	0	71.8	-50.3
						CHANNELS 3  Xrotation Yrotation Zrotation
						JOINT neck_2
						{
							OFFSET	0	86.2	-25.8
							CHANNELS 3  Xrotation Yrotation Zrotation
							JOINT head_ee
							{
								OFFSET	0	179.8	-8.7
								CHANNELS 3  Xrotation Yrotation Zrotation
								End Site
								{
									OFFSET	1	0	0
								}
							}
						}
					}
					JOINT left_clavicle
					{
						OFFSET	-43.2	22.4	-70.8
						CHANNELS 3  Xrotation Yrotation Zrotation
						JOINT left_shoulder
						{
							OFFSET	-93.9	-5.79999	48.7
							CHANNELS 3  Xrotation Yrotation Zrotation
							JOINT left_elbow
							{
								OFFSET	-291.4	-30.8	15.2
								CHANNELS 3  Xrotation Yrotation Zrotation
								JOINT left_lowarm_twist
								{
									OFFSET	-110.7	-3.89999	13.6
									CHANNELS 3  Xrotation Yrotation Zrotation
									JOINT left_hand
									{
										OFFSET	-110.7	-3.89999	13.6
										CHANNELS 3  Xrotation Yrotation Zrotation
										JOINT left_ee
										{
											OFFSET	-80.8	-5.10001	12.1
											CHANNELS 3  Xrotation Yrotation Zrotation
											End Site
											{
												OFFSET	1	0	0
											}
										}
									}
								}
							}
						}
					}
					JOINT right_clavicle
					{
						OFFSET	43.2	22.4	-70.8
						CHANNELS 3  Xrotation Yrotation Zrotation
						JOINT right_shoulder
						{
							OFFSET	93.9	-5.79999	48.7
							CHANNELS 3  Xrotation Yrotation Zrotation
							JOINT right_elbow
							{
								OFFSET	291.4	-30.8	15.2
								CHANNELS 3  Xrotation Yrotation Zrotation
								JOINT right_lowarm_twist
								{
									OFFSET	110.7	-3.89999	13.6
									CHANNELS 3  Xrotation Yrotation Zrotation
									JOINT right_hand
									{
										OFFSET	110.7	-3.89999	13.6
										CHANNELS 3  Xrotation Yrotation Zrotation
										JOINT right_ee
										{
											OFFSET	80.8	-5.10001	12.1
											CHANNELS 3  Xrotation Yrotation Zrotation
											End Site
											{
												OFFSET	1	0	0
											}
										}
									}
								}
							}
						}
					}
				}
			}
		}
	}
	JOINT left_hip
	{
		OFFSET	-82.8	-127.5	0.300001
		CHANNELS 3  Xrotation Yrotation Zrotation
		JOINT left_knee
		{
			OFFSET	-28.2	-396.7	2.2
			CHANNELS 3  Xrotation Yrotation Zrotation
			JOINT left_ankle
			{
				OFFSET	-11.7	-411.3	35.4
				CHANNELS 3  Xrotation Yrotation Zrotation
				JOINT left_toes
				{
					OFFSET	0	-60	-88.6
					CHANNELS 3  Xrotation Yrotation Zrotation
					JOINT left_foot_ee
					{
						OFFSET	-22.5	-16.5	-42.2
						CHANNELS 3  Xrotation Yrotation Zrotation
						End Site
						{
							OFFSET	1	0	0
						}
					}
				}
			}
		}
	}
	JOINT right_hip
	{
		OFFSET	82.8	-127.5	0.300001
		CHANNELS 3  Xrotation Yrotation Zrotation
		JOINT right_knee
		{
			OFFSET	28.2	-396.7	2.2
			CHANNELS 3  Xrotation Yrotation Zrotation
			JOINT right_ankle
			{
				OFFSET	11.7	-411.3	35.4
				CHANNELS 3  Xrotation Yrotation Zrotation
				JOINT right_toes
				{
					OFFSET	0	-60	-88.6
					CHANNELS 3  Xrotation Yrotation Zrotation
					JOINT right_foot_ee
					{
						OFFSET	22.5	-16.5	-42.2
						CHANNELS 3  Xrotation Yrotation Zrotation
						End Site
						{
							OFFSET	1	0	0
						}
					}
				}
			}
		}
	}
}
MOTION
Frames: 16
Frame Time: 0.02
2218.63 720.275 -1515.28 -3.37138 65.7534 -6.10579 3.04548 1.00264 5.0068 3.05916 0.682434 5.06026 3.1152 -0.118524 5.10458 3.07952 0.688085 5.0595 -9.47896 15.848 -7.04048 -9.65388 34.5335 -2.93345 -0.0 0.0 -0.0 -9.48632 24.1405 -10.2856 -26.3352 -17.1127 73.4134 0.77245 -20.9392 0.142744 -31.6015 -2.10544 3.3946 1.8639 12.736 17.2666 -0.0 0.0 -0.0 13.6679 26.1983 -27.2029 3.83385 13.208 -71.3065 2.03534 45.23 -0.847927 18.6365 -0.275961 2.35417 3.07422 7.94404 -17.655 0.0 0.0 0.0 11.3634 25.9269 -3.55042 -46.3853 -0.922126 6.86794 35.9383 9.37107 -4.49902 -40.1642 0.0 0.0 -0.0 0.0 -0.0 11.563 22.0517 -0.904606 -11.6216 -0.301386 -1.755 40.5511 -11.9544 4.94232 -40.1732 0.0 0.0 0.0 0.0 0.0 
2215.96 721.457 -1517.94 -4.26008 66.8821 -4.6851 2.90026 0.808736 4.9833 2.91394 0.490406 5.02452 2.95317 -0.317606 5.03836 2.91808 0.481065 5.02542 -10.2973 15.5848 -7.71595 -10.5649 34.4874 -3.38137 -0.0 0.0 -0.0 -9.73236 23.8814 -10.7503 -26.6407 -17.2426 73.4558 0.878254 -23.5117 0.182774 -30.8613 -2.03577 3.33012 1.99605 12.8494 18.1842 -0.0 0.0 -0.0 13.2674 26.1168 -26.282 3.73602 13.5837 -71.2237 2.48885 50.9466 -1.18584 18.5024 -0.276727 2.33707 3.24035 8.9413 -18.3835 0.0 0.0 0.0 13.8969 27.5165 -5.50621 -36.02 -0.233169 5.43308 27.5455 7.39261 -3.62061 -39.7365 0.0 0.0 -0.0 0.0 -0.0 10.7421 21.7186 -1.24197 -8.31032 -0.251914 -1.24939 39.574 -15.7639 4.90608 -40.1681 0.0 0.0 0.0 0.0 0.0 
2211.38 722.058 -1515.39 -5.04322 67.3507 -3.3949 2.89948 0.801261 4.99294 2.91321 0.482336 5.03367 2.95179 -0.327189 5.0461 2.91659 0.472818 5.03457 -8.48168 14.8052 -8.78825 -8.38309 33.7702 -5.31698 -0.0 0.0 -0.0 -9.68445 23.3167 -10.9142 -26.5494 -17.2515 74.2968 0.867579 -23.2565 0.178537 -31.094 -2.05758 3.35048 2.31944 12.6835 20.3047 -0.0 0.0 -0.0 13.443 25.7519 -26.7332 3.59417 11.8397 -69.9815 2.81184 54.3143 -1.44265 19.1091 -0.272939 2.41446 3.28922 11.4049 -17.5912 0.0 0.0 0.0 13.2204 26.7836 -4.20076 -24.7655 0.208718 3.76525 28.0704 6.79429 -3.67842 -38.2061 0.0 0.0 -0.0 0.0 -0.0 10.525 21.4818 -1.67821 -7.01512 -0.224624 -1.05251 40.241 -19.3227 5.03522 -40.1707 0.0 0.0 0.0 0.0 0.0 
2205.22 722.786 -1512.65 -8.08884 68.2761 0.0773469 2.86182 0.708016 4.82687 2.87469 0.399807 4.86202 2.90516 -0.385458 4.86318 2.87238 0.386495 4.8631 -7.36274 14.5765 -8.64232 -7.10162 33.2507 -5.61545 -0.0 0.0 -0.0 -10.1566 23.7129 -11.4455 -25.6207 -17.906 75.3549 0.83507 -22.4732 0.165906 -29.2799 -1.88976 3.1894 2.42202 13.2548 21.1851 -0.0 0.0 -0.0 13.701 25.4241 -27.3729 3.50495 11.2333 -69.2985 3.02126 56.2391 -1.61479 17.2488 -0.281959 2.17703 3.43146 12.5448 -18.0546 0.0 0.0 0.0 14.1349 28.9257 -4.7511 -19.4775 0.30149 2.9594 27.2367 3.68865 -3.58966 -38.5708 0.0 0.0 -0.0 0.0 -0.0 10.9595 21.3892 -1.97279 -5.93046 -0.198349 -0.888134 41.6848 -22.9902 5.26255 -39.4382 0.0 0.0 0.0 0.0 0.0 
2199.91 724.096 -1512.88 -8.35409 68.8726 0.36854 2.86774 0.69314 4.78213 2.88038 0.387797 4.81644 2.90955 -0.389649 4.81629 2.87739 0.374977 4.81745 -7.70846 14.2892 -6.49641 -7.61339 31.2175 -3.38022 -0.0 0.0 -0.0 -10.0921 23.5761 -11.4089 -25.4762 -18.111 74.7589 0.886914 -23.7181 0.186244 -28.7192 -1.83894 3.13856 2.7544 14.7038 23.9079 -0.0 0.0 -0.0 13.3442 24.9801 -26.5919 3.69646 10.3771 -69.5484 3.15049 57.3377 -1.72292 16.4866 -0.283428 2.0797 3.28559 12.0057 -17.2828 0.0 0.0 0.0 14.2844 29.3908 -4.44889 -19.2851 0.303459 2.92995 28.3467 5.02062 -3.7097 -37.3978 0.0 0.0 -0.0 0.0 -0.0 10.7703 23.37 -2.02223 -5.53183 -0.187911 -0.827848 42.001 -25.1025 5.35944 -39.7309 0.0 0.0 0.0 0.0 0.0 
2194.79 723.058 -1508.49 -10.2167 68.0216 2.08957 3.0379 0.727806 4.69844 3.05008 0.4277 4.73512 3.08158 -0.322774 4.74341 3.05045 0.429547 4.73495 -6.45544 14.2671 -7.61613 -6.13559 31.9403 -4.93087 -0.0 0.0 -0.0 -10.259 23.4367 -11.7171 -24.1086 -18.3329 75.7496 0.878604 -23.5201 0.182914 -27.237 -1.70702 3.0018 2.97872 14.1106 25.2901 -0.0 0.0 -0.0 13.3733 25.1686 -26.6386 3.77944 9.67086 -69.6766 3.11606 57.0513 -1.69399 15.9698 -0.283687 2.01369 3.37121 13.7843 -17.0342 0.0 0.0 0.0 13.1428 29.9655 -3.71654 -17.2663 0.318165 2.62057 28.7004 4.63518 -3.74907 -36.0445 0.0 0.0 -0.0 0.0 -0.0 10.815 22.7124 -1.58006 -4.42942 -0.156861 -0.661516 42.5301 -25.4574 5.42025 -38.9902 0.0 0.0 0.0 0.0 0.0 
2188.46 725.096 -1507.12 -11.1175 67.7628 3.07045 3.08184 0.679442 4.65479 3.09381 0.382202 4.68849 3.12114 -0.357256 4.69045 3.09066 0.38716 4.68808 -5.50928 14.6768 -6.99403 -5.09523 32.2169 -4.51931 -0.0 0.0 -0.0 -10.4439 23.9557 -11.7644 -22.8279 -18.634 75.6646 0.876755 -23.4759 0.182177 -26.39 -1.63324 2.92214 3.11595 13.7077 26.1373 -0.0 0.0 -0.0 13.398 24.9603 -26.7193 3.25201 8.66023 -69.4632 3.11471 57.04 -1.69285 15.5227 -0.283431 1.95658 3.93222 17.6765 -19.0065 0.0 0.0 0.0 12.8621 30.2858 -3.49072 -18.33 0.311775 2.78365 29.3265 3.54106 -3.81975 -34.5346 0.0 0.0 -0.0 0.0 -0.0 11.136 23.6448 -1.64898 -4.10683 -0.147171 -0.612956 42.2615 -25.8453 5.4096 -38.9798 0.0 0.0 0.0 0.0 0.0 
2177.47 724.526 -1505.06 -11.4132 67.9744 3.57555 3.08311 0.739464 4.5588 3.09455 0.448191 4.5965 3.12677 -0.276962 4.60996 3.09741 0.453783 4.59595 -4.90351 14.2223 -6.71448 -4.44577 31.1482 -4.49824 -0.0 0.0 -0.0 -10.6218 24.5663 -11.7531 -22.2057 -19.0477 75.538 0.844802 -22.7086 0.169644 -26.1324 -1.61104 2.8977 3.18879 13.8397 26.6937 -0.0 0.0 -0.0 13.4622 24.8356 -26.8828 3.05026 7.5988 -69.3409 2.77419 53.9479 -1.41214 15.0917 -0.282763 1.90153 3.9893 18.7228 -18.8526 0.0 0.0 0.0 12.8148 30.3421 -3.4039 -18.8193 0.307819 2.85862 31.2357 1.40632 -4.0316 -34.5405 0.0 0.0 -0.0 0.0 -0.0 10.8566 25.0068 -1.28008 -6.64294 -0.21596 -0.996054 41.8685 -24.9967 5.34362 -38.9704 0.0 0.0 0.0 0.0 0.0 
2172.79 725.675 -1502.7 -11.2452 67.8815 3.49651 3.01693 0.76691 4.40068 3.02757 0.485612 4.44045 3.06196 -0.220462 4.46144 3.03452 0.486196 4.44039 -3.84994 14.0117 -6.79288 -3.26745 30.7665 -4.93861 -0.0 0.0 -0.0 -10.3434 24.4184 -11.4127 -20.6135 -19.2821 75.371 0.828557 -22.3152 0.163424 -25.6368 -1.56864 2.8504 3.27598 13.8658 27.3239 -0.0 0.0 -0.0 13.5763 24.7111 -27.1627 3.25879 6.84008 -68.7364 2.46291 50.6528 -1.16574 14.5109 -0.281207 1.82737 4.00555 19.7448 -18.4187 0.0 0.0 0.0 12.8404 30.3673 -3.47776 -19.3535 0.30277 2.94043 32.6993 -0.405744 -4.19441 -34.251 0.0 0.0 -0.0 0.0 -0.0 10.9014 25.4543 -1.03706 -8.22554 -0.250264 -1.23648 42.2413 -23.5669 5.33068 -39.0813 0.0 0.0 0.0 0.0 0.0 
2168.65 724.51 -1500.01 -12.4582 67.4627 4.86619 3.0363 0.7004 4.32488 3.04661 0.424045 4.36059 3.07566 -0.267777 4.37294 3.04923 0.425535 4.36044 -3.24536 13.8718 -6.56086 -2.61863 30.3004 -4.89289 -0.0 0.0 -0.0 -10.132 24.2172 -11.1918 -19.0609 -19.5079 75.8698 0.818391 -22.0678 0.159585 -25.36 -1.54514 2.82383 3.322 14.194 27.7494 -0.0 0.0 -0.0 13.6138 24.5781 -27.2651 3.09372 6.02445 -69.1653 2.25635 48.1754 -1.00884 13.9753 -0.279105 1.75899 3.94535 19.9516 -17.8915 0.0 0.0 0.0 12.6485 30.4014 -3.47163 -19.5502 0.300719 2.97052 33.586 -1.87876 -4.29674 -34.4216 0.0 0.0 -0.0 0.0 -0.0 12.4812 26.3236 -1.47599 -9.51102 -0.27323 -1.4324 42.669 -21.77 5.31499 -39.1273 0.0 0.0 0.0 0.0 0.0 
2167.06 723.447 -1498.06 -12.9388 66.4218 5.59946 3.09127 0.721125 4.23451 3.10113 0.450463 4.27172 3.1315 -0.223408 4.28956 3.10612 0.45622 4.27111 -2.87103 13.8336 -6.39429 -2.21803 30.0795 -4.83004 -0.0 0.0 -0.0 -9.95716 23.8582 -11.0895 -17.6527 -19.6215 76.0441 0.813655 -21.9523 0.15781 -25.1684 -1.52895 2.80537 3.35579 14.4062 28.0532 -0.0 0.0 -0.0 13.6241 24.5204 -27.2954 2.69331 5.3616 -69.3838 2.11752 46.363 -0.906845 13.6297 -0.27741 1.71488 3.89063 20.0982 -17.4358 0.0 0.0 0.0 12.6839 30.4114 -3.42265 -19.6514 0.299623 2.98603 34.1427 -2.79983 -4.3617 -34.577 0.0 0.0 -0.0 0.0 -0.0 13.6148 26.9395 -1.89625 -10.5301 -0.28831 -1.58805 42.7492 -20.7431 5.29386 -39.2025 0.0 0.0 0.0 0.0 0.0 
2162.99 724.18 -1496.68 -13.2051 65.5872 6.20539 3.12206 0.654123 4.06532 3.13117 0.394333 4.09862 3.15632 -0.250079 4.10993 3.13298 0.401587 4.09792 -2.62319 13.7208 -5.73047 -2.00487 29.3473 -4.20226 -0.0 0.0 -0.0 -9.76323 23.4877 -10.9597 -15.2627 -19.8652 76.0748 0.819411 -22.0927 0.159968 -24.8973 -1.50614 2.77916 3.43361 14.5467 28.6546 -0.0 0.0 -0.0 13.6378 24.2118 -27.3609 1.628 4.68502 -69.6867 1.93835 43.8323 -0.77991 13.7129 -0.277843 1.7255 3.68079 20.1029 -15.9937 0.0 0.0 0.0 11.5044 30.3746 -2.90042 -16.9788 0.319372 2.57648 34.405 -3.46417 -4.3953 -35.0495 0.0 0.0 -0.0 0.0 -0.0 14.9434 25.5718 -2.6308 -11.9238 -0.304445 -1.80128 41.9131 -20.08 5.20352 -39.5996 0.0 0.0 0.0 0.0 0.0 
2158.33 725.252 -1494.04 -13.4315 65.4789 6.57702 3.09699 0.58565 4.00887 3.10587 0.329581 4.03795 3.12614 -0.306844 4.03974 3.10353 0.334474 4.03755 -3.27321 14.0436 -5.0641 -2.75305 29.4764 -3.26757 -0.0 0.0 -0.0 -9.2696 22.0302 -10.8128 -11.7982 -20.0386 75.969 0.821907 -22.1535 0.160908 -24.8899 -1.50552 2.77845 3.37336 14.7298 28.2716 -0.0 0.0 -0.0 13.6793 24.5535 -27.4209 0.299193 4.20879 -70.0374 1.74461 40.831 -0.649396 13.2841 -0.27545 1.67078 3.74906 20.017 -16.5064 0.0 0.0 0.0 10.5462 30.6164 -2.47799 -17.039 0.319138 2.5857 34.739 -4.39978 -4.44003 -34.7306 0.0 0.0 -0.0 0.0 -0.0 15.0776 27.6783 -2.4031 -13.2607 -0.315045 -2.00611 41.7185 -19.3232 5.16817 -39.1821 0.0 0.0 0.0 0.0 0.0 
2152.64 728.422 -1491.36 -12.7419 64.793 6.06389 3.02549 0.629719 3.92991 3.034 0.378574 3.96194 3.05754 -0.251176 3.97204 3.03573 0.378781 3.96192 -2.70775 14.2084 -4.84576 -2.13425 29.5595 -3.17198 -0.0 0.0 -0.0 -9.19193 21.9797 -10.715 -9.32113 -20.061 75.999 0.854926 -22.9527 0.173572 -24.839 -1.50125 2.77351 3.30879 14.6354 27.7812 -0.0 0.0 -0.0 13.7358 25.508 -27.4443 -0.954901 3.57869 -70.3402 1.50043 36.62 -0.496536 13.5067 -0.276743 1.69918 3.62619 20.1653 -15.5881 0.0 0.0 0.0 9.43072 30.6336 -1.9581 -16.5229 0.320832 2.50654 34.3281 -4.70241 -4.40393 -35.1165 0.0 0.0 -0.0 0.0 -0.0 15.2258 28.0976 -2.43944 -13.8225 -0.318073 -2.09227 40.1168 -18.9042 5.01466 -39.4002 0.0 0.0 0.0 0.0 0.0 
2151.13 730.507 -1489.65 -12.8662 63.9978 6.35813 2.98117 0.682531 3.83142 2.98923 0.437532 3.86701 3.01641 -0.180616 3.88746 2.99559 0.435133 3.86728 -2.72206 13.5544 -4.24624 -2.23105 27.9109 -2.60944 -0.0 0.0 -0.0 -9.19831 21.6512 -10.8535 -7.89683 -20.0646 75.3285 0.83495 -22.4703 0.165859 -26.0333 -1.60253 2.88827 3.12504 14.2954 26.375 -0.0 0.0 -0.0 13.6857 25.7447 -27.2992 -1.25193 3.29951 -70.412 1.19313 30.5838 -0.326235 13.042 -0.273918 1.63991 3.38243 19.5813 -14.2289 0.0 0.0 0.0 8.04598 30.9577 -1.23474 -14.2091 0.319665 2.15156 34.3404 -5.66874 -4.41928 -35.0086 0.0 0.0 -0.0 0.0 -0.0 14.7888 28.2086 -2.1417 -12.8649 -0.312405 -1.94544 40.1406 -18.5086 5.00843 -39.6643 0.0 0.0 0.0 0.0 0.0 
2142.25 731.845 -1489.06 -12.4051 64.4153 6.14827 2.8899 0.7079 3.6157 2.89704 0.476547 3.65335 2.92557 -0.113968 3.6825 2.90695 0.468648 3.65437 -2.52192 13.2525 -4.20397 -2.03355 27.3112 -2.65254 -0.0 0.0 -0.0 -9.13032 21.7789 -10.7001 -6.12497 -20.2069 75.7141 0.854445 -22.9411 0.173385 -26.5519 -1.64726 2.93745 3.04905 14.0671 25.7714 -0.0 0.0 -0.0 13.5864 25.9459 -27.0438 -2.86929 2.81576 -70.7888 0.986329 26.0396 -0.228076 12.9905 -0.273574 1.63333 3.27604 19.7175 -13.4372 0.0 0.0 0.0 7.04997 31.212 -0.829696 -12.9522 0.313023 1.95882 33.7384 -6.18027 -4.36752 -35.2106 0.0 0.0 -0.0 0.0 -0.0 14.5468 28.2839 -2.20681 -13.4809 -0.316332 -2.03988 39.7197 -18.2465 4.96447 -39.4513 0.0 0.0 0.0 0.0 0.0 
